# xmcd
#
# Track frame offsets:
#	150
#	8337
#	36699
#	61610
#	78313
#	93667
#	121261
#	123100
#	128205
#	133494
#	139377
#	140223
#
# Disc length: 1882 seconds
#
# Revision: 0
# Processed by: cddbd v1.4PL0 Copyright (c) Steve Scherf et al.
# Submitted via: audiograbber 1.81.01
#
DISCID=ae07580c
DTITLE=Varja and Mario - POZVONI NA ATC
DYEAR=2002
DGENRE=Club-House
TTITLE0=Varja - ATC mix 1
TTITLE1=Varja - ATC mix 2
TTITLE2=Varja - ATC mix 3
TTITLE3=Mario - ATC rmx 1
TTITLE4=Mario - ATC rmx 2
TTITLE5=Varja - Huin (Exclusive super BONUS track)
TTITLE6=ATC - Zvonok 1 (Original telephone ring)
TTITLE7=ATC - Zvonok 2 (Original telephone ring)
TTITLE8=ATC - Zvonok 3 (Original telephone ring)
TTITLE9=ATC - Zvonok 4 (Original telephone ring)
TTITLE10=Vampir - Zvonok 1 (Original telephone ring)
TTITLE11=Vampir - Zvonok 2 (Original telephone ring)
EXTD=Кавер телефонного разговора с какими то даунами...
EXTT0=Кавер телефонного разговора с какими-то даунами...
EXTT1=Кавер телефонного разговора с какими-то даунами...
EXTT2=Кавер телефонного разговора с какими-то даунами...
EXTT3=Кавер телефонного разговора с какими-то даунами...
EXTT4=Кавер телефонного разговора с какими-то даунами...
EXTT5=Кавер телефонного разговора с какими-то даунами...
EXTT6=
EXTT7=
EXTT8=
EXTT9=
EXTT10=
EXTT11=
PLAYORDER=
